<svg xmlns="http://www.w3.org/2000/svg" xmlns:xlink="http://www.w3.org/1999/xlink" width="1920" zoomAndPan="magnify" viewBox="0 0 1440 1439.999935" height="1920" preserveAspectRatio="xMidYMid meet" version="1.0"><defs><clipPath id="7ec43b5956"><path d="M 0 0 L 1440 0 L 1440 1440 L 0 1440 Z M 0 0 " clip-rule="nonzero"/></clipPath><clipPath id="5c6df637a0"><rect x="0" width="1440" y="0" height="1440"/></clipPath><clipPath id="df69aef6b3"><path d="M 322 132 L 1201 132 L 1201 1307.597656 L 322 1307.597656 Z M 322 132 " clip-rule="nonzero"/></clipPath><clipPath id="c048d76ca1"><path d="M 461.554688 326.222656 C 444.875 656.585938 441.210938 689.941406 435.710938 743.277344 C 428.5625 812.648438 414.175781 926.558594 408.21875 982.457031 C 405.011719 1012.699219 401.347656 1037.441406 401.53125 1052.195312 C 401.621094 1059.070312 403.453125 1062.824219 403.273438 1067.316406 C 403.089844 1070.890625 402.355469 1073.824219 401.347656 1076.847656 C 400.339844 1079.871094 398.871094 1082.894531 397.222656 1085.644531 C 395.480469 1088.394531 393.375 1090.960938 390.992188 1093.160156 C 388.699219 1095.449219 386.042969 1097.464844 383.292969 1099.023438 C 380.453125 1100.671875 377.429688 1101.957031 374.3125 1102.871094 C 371.199219 1103.789062 367.898438 1104.339844 364.691406 1104.429688 C 361.484375 1104.613281 358.183594 1104.339844 354.976562 1103.695312 C 351.863281 1103.054688 348.652344 1101.957031 345.722656 1100.582031 C 342.878906 1099.207031 340.039062 1097.464844 337.566406 1095.449219 C 335 1093.433594 332.707031 1090.960938 330.785156 1088.394531 C 328.859375 1085.828125 327.117188 1082.988281 325.925781 1079.960938 C 324.644531 1077.03125 323.726562 1073.824219 323.179688 1070.613281 C 322.628906 1067.5 321.988281 1066.214844 322.71875 1060.902344 C 326.570312 1035.058594 377.0625 895.675781 399.699219 837.484375 C 414.636719 799.175781 427.007812 773.058594 440.660156 743.734375 C 453.03125 717.066406 463.664062 694.433594 477.867188 668.5 C 493.71875 639.632812 514.707031 606.640625 532.117188 578.691406 C 547.605469 553.855469 562.175781 531.128906 577.019531 508.859375 C 590.859375 487.96875 602.128906 469.730469 618.167969 448.835938 C 637.136719 423.910156 663.53125 394.21875 684.789062 370.394531 C 703.210938 349.867188 718.511719 332.179688 737.757812 314.035156 C 758.195312 294.789062 783.761719 275.269531 804.5625 258.59375 C 822.25 244.386719 836.085938 232.109375 854.324219 219.828125 C 874.394531 206.265625 897.121094 194.535156 920.488281 181.429688 C 946.148438 166.953125 988.300781 143.125 1002.140625 136.800781 C 1006.722656 134.785156 1008.28125 134.234375 1011.394531 133.503906 C 1014.601562 132.769531 1017.992188 132.402344 1021.292969 132.402344 C 1024.5 132.496094 1027.890625 132.953125 1031.007812 133.777344 C 1034.214844 134.601562 1037.328125 135.792969 1040.171875 137.351562 C 1043.101562 138.910156 1045.851562 140.925781 1048.234375 143.125 C 1050.617188 145.324219 1052.816406 147.890625 1054.648438 150.546875 C 1056.480469 153.296875 1058.039062 156.320312 1059.140625 159.34375 C 1060.238281 162.460938 1060.972656 165.761719 1061.339844 168.96875 C 1061.707031 172.265625 1061.613281 175.65625 1061.15625 178.863281 C 1060.789062 182.074219 1059.875 185.371094 1058.683594 188.394531 C 1057.492188 191.417969 1055.839844 194.445312 1054.007812 197.101562 C 1052.082031 199.757812 1049.792969 202.234375 1047.316406 204.339844 C 1044.84375 206.449219 1043.378906 207.914062 1039.164062 209.839844 C 1028.53125 214.605469 1000.671875 217.71875 978.773438 225.234375 C 951.003906 234.671875 916.457031 250.894531 886.765625 264.914062 C 857.898438 278.476562 829.765625 292.957031 802.914062 307.800781 C 777.253906 322.097656 754.160156 334.929688 728.960938 352.066406 C 700.367188 371.585938 665.730469 398.34375 641.167969 419.878906 C 621.558594 437.105469 605.886719 451.585938 591.410156 469.640625 C 577.019531 487.507812 559.703125 506.019531 554.476562 527.648438 C 549.070312 550.375 551.636719 582.816406 561.625 603.433594 C 570.972656 622.585938 589.667969 637.796875 609.554688 648.980469 C 632.464844 661.808594 666.09375 665.382812 694.046875 671.523438 C 721.261719 677.386719 745.546875 682.976562 775.238281 685.359375 C 810.703125 688.292969 856.617188 685.175781 893.089844 684.535156 C 924.796875 683.894531 949.445312 683.710938 981.796875 681.96875 C 1020.742188 679.863281 1073.800781 669.414062 1110.457031 671.980469 C 1138.226562 673.8125 1168.191406 675.097656 1182.945312 687.742188 C 1194.765625 698.007812 1202.191406 715.691406 1200.082031 733.195312 C 1196.601562 761.328125 1155.179688 805.132812 1128.695312 836.015625 C 1103.21875 865.707031 1077.285156 887.882812 1044.84375 915.835938 C 1004.339844 950.65625 947.796875 992.8125 902.527344 1026.351562 C 862.664062 1055.859375 828.757812 1081.613281 787.886719 1107.179688 C 744.355469 1134.488281 689.921875 1162.164062 648.316406 1184.523438 C 614.960938 1202.394531 585.726562 1217.238281 557.59375 1231.445312 C 533.308594 1243.722656 514.707031 1253.894531 489.320312 1265.074219 C 458.714844 1278.546875 403.636719 1300.171875 385.953125 1305.214844 C 379.996094 1306.953125 377.796875 1307.414062 373.761719 1307.503906 C 369.640625 1307.597656 365.425781 1307.046875 361.484375 1305.855469 C 357.636719 1304.574219 353.695312 1302.648438 350.394531 1300.265625 C 347.097656 1297.882812 344.070312 1294.859375 341.6875 1291.46875 C 339.308594 1288.167969 337.382812 1284.320312 336.28125 1280.378906 C 335.089844 1276.53125 334.449219 1272.222656 334.632812 1268.097656 C 334.726562 1264.066406 335.550781 1259.761719 337.015625 1256.003906 C 338.390625 1252.152344 340.589844 1248.398438 343.15625 1245.191406 C 345.722656 1242.074219 348.929688 1239.140625 352.320312 1236.941406 C 355.800781 1234.835938 359.835938 1233.09375 363.773438 1232.085938 C 367.714844 1231.167969 372.023438 1230.800781 376.054688 1231.167969 C 380.179688 1231.535156 384.394531 1232.542969 388.058594 1234.191406 C 391.816406 1235.84375 395.480469 1238.132812 398.507812 1240.882812 C 401.53125 1243.632812 404.1875 1247.023438 406.203125 1250.597656 C 408.21875 1254.171875 409.6875 1258.203125 410.417969 1262.234375 C 411.246094 1266.175781 411.335938 1270.574219 410.695312 1274.605469 C 410.144531 1278.636719 408.863281 1282.761719 407.027344 1286.425781 C 405.195312 1290.09375 402.722656 1293.574219 399.789062 1296.417969 C 396.949219 1299.347656 393.375 1301.824219 389.707031 1303.65625 C 386.042969 1305.398438 381.917969 1306.679688 377.886719 1307.230469 C 373.855469 1307.78125 369.457031 1307.597656 365.515625 1306.863281 C 361.484375 1306.039062 357.453125 1304.574219 353.878906 1302.554688 C 350.394531 1300.539062 347.003906 1297.789062 344.253906 1294.765625 C 341.597656 1291.652344 339.214844 1287.984375 337.65625 1284.320312 C 336.097656 1280.5625 335 1276.347656 334.726562 1272.222656 C 334.359375 1268.191406 334.726562 1263.882812 335.734375 1259.945312 C 336.742188 1256.003906 338.480469 1251.972656 340.679688 1248.582031 C 342.878906 1245.097656 345.8125 1241.890625 349.019531 1239.417969 C 352.136719 1236.851562 354.242188 1235.84375 359.835938 1233.367188 C 375.960938 1226.128906 428.929688 1211.925781 458.253906 1200.195312 C 483 1190.296875 501.328125 1180.765625 524.96875 1169.035156 C 552.644531 1155.289062 581.328125 1139.894531 613.769531 1122.390625 C 653.632812 1100.765625 704.769531 1074.832031 746.28125 1048.53125 C 785.6875 1023.511719 818.953125 997.761719 857.441406 968.710938 C 900.785156 936.179688 955.035156 895.308594 992.882812 861.949219 C 1022.574219 835.832031 1046.128906 808.523438 1068.488281 787.8125 C 1085.441406 772.050781 1116.875 753.449219 1114.582031 747.398438 C 1112.472656 742.175781 1085.625 747.765625 1067.847656 748.683594 C 1044.019531 749.875 1012.769531 753.171875 984.363281 754.824219 C 954.855469 756.5625 926.8125 757.664062 893.914062 758.582031 C 854.324219 759.773438 802.546875 763.34375 763.140625 760.597656 C 730.335938 758.304688 704.675781 753.355469 673.519531 746.574219 C 638.421875 738.878906 591.683594 730.261719 563.367188 715.507812 C 542.199219 704.511719 526.800781 690.492188 513.972656 675.097656 C 502.058594 660.800781 494.546875 645.769531 487.488281 627.078125 C 478.78125 604.074219 467.511719 570.351562 469.34375 545.699219 C 470.992188 524.257812 481.714844 506.84375 492.070312 487.050781 C 504.074219 464.050781 521.671875 438.113281 539.355469 417.039062 C 556.492188 396.695312 574.363281 381.390625 596.175781 362.421875 C 623.023438 338.960938 659.679688 309.636719 690.011719 288.375 C 716.496094 269.773438 740.507812 256.027344 767.175781 240.445312 C 795.125 224.136719 820.417969 208.28125 854.414062 192.703125 C 898.496094 172.359375 990.410156 138.453125 1011.394531 133.503906 C 1016.527344 132.21875 1017.992188 132.402344 1021.199219 132.402344 C 1024.5 132.496094 1027.890625 132.953125 1031.007812 133.777344 C 1034.214844 134.601562 1037.328125 135.792969 1040.171875 137.351562 C 1043.101562 138.910156 1045.851562 140.925781 1048.234375 143.125 C 1050.617188 145.324219 1052.816406 147.890625 1054.648438 150.546875 C 1056.480469 153.296875 1058.039062 156.320312 1059.140625 159.34375 C 1060.238281 162.460938 1060.972656 165.761719 1061.339844 168.96875 C 1061.707031 172.265625 1061.613281 175.65625 1061.15625 178.863281 C 1060.789062 182.074219 1059.875 185.371094 1058.683594 188.394531 C 1057.492188 191.417969 1055.839844 194.445312 1054.007812 197.101562 C 1052.082031 199.757812 1049.792969 202.234375 1047.316406 204.339844 C 1044.84375 206.449219 1043.46875 207.457031 1039.164062 209.839844 C 1026.242188 217.171875 982.894531 235.222656 958.335938 247.777344 C 937.074219 258.773438 918.105469 268.765625 899.960938 280.402344 C 882.734375 291.492188 868.527344 302.671875 851.757812 315.683594 C 832.605469 330.53125 810.246094 347.941406 791.550781 365.261719 C 773.496094 381.941406 758.378906 398.25 741.058594 417.679688 C 721.261719 439.855469 697.804688 468.355469 679.933594 491.816406 C 664.628906 511.792969 652.992188 528.929688 639.519531 548.90625 C 625.132812 570.441406 610.929688 592.621094 596.265625 616.722656 C 580.046875 643.390625 561.257812 674.730469 546.78125 702.222656 C 533.675781 726.871094 523.503906 748.226562 512.324219 773.609375 C 499.859375 801.835938 488.40625 831.527344 476.21875 864.242188 C 461.921875 902.457031 445.976562 952.675781 432.6875 989.421875 C 422.058594 1018.472656 407.121094 1053.753906 403.273438 1067.316406 C 401.898438 1071.898438 402.355469 1073.730469 401.347656 1076.847656 C 400.339844 1079.871094 398.871094 1082.894531 397.222656 1085.644531 C 395.480469 1088.394531 393.375 1090.960938 390.992188 1093.160156 C 388.699219 1095.449219 386.042969 1097.464844 383.292969 1099.023438 C 380.453125 1100.671875 377.429688 1101.957031 374.3125 1102.871094 C 371.199219 1103.789062 367.898438 1104.339844 364.691406 1104.429688 C 361.484375 1104.613281 358.183594 1104.339844 354.976562 1103.695312 C 351.863281 1103.054688 348.652344 1101.957031 345.8125 1100.582031 C 342.878906 1099.207031 340.039062 1097.464844 337.566406 1095.449219 C 335 1093.433594 332.707031 1090.960938 330.785156 1088.394531 C 328.859375 1085.828125 327.117188 1082.988281 325.925781 1079.960938 C 324.644531 1077.03125 323.820312 1074.648438 323.179688 1070.707031 C 322.171875 1064.199219 321.894531 1055.402344 322.628906 1044.679688 C 323.820312 1026.71875 329.683594 1001.152344 333.714844 973.386719 C 339.488281 934.4375 348.011719 875.148438 352.871094 832.71875 C 356.902344 797.800781 358.824219 771.867188 361.851562 737.046875 C 365.425781 695.164062 369.824219 652.644531 372.480469 598.667969 C 376.238281 522.605469 376.054688 352.796875 378.621094 323.566406 C 379.078125 317.976562 379.261719 316.875 380.085938 313.667969 C 381.003906 310.460938 382.378906 307.34375 383.933594 304.410156 C 385.585938 301.570312 387.601562 298.820312 389.890625 296.347656 C 392.183594 293.964844 394.839844 291.765625 397.589844 290.023438 C 400.429688 288.191406 403.453125 286.726562 406.664062 285.625 C 409.777344 284.527344 413.078125 283.882812 416.375 283.519531 C 419.675781 283.242188 423.15625 283.335938 426.363281 283.882812 C 429.664062 284.433594 432.964844 285.351562 436.078125 286.632812 C 439.101562 287.824219 442.035156 289.566406 444.785156 291.492188 C 447.441406 293.507812 449.917969 295.890625 452.023438 298.363281 C 454.132812 300.929688 455.964844 303.863281 457.429688 306.792969 C 458.898438 309.820312 459.996094 313.027344 460.636719 316.324219 C 461.371094 319.53125 461.554688 326.222656 461.554688 326.222656 " clip-rule="nonzero"/></clipPath><clipPath id="fb59dee8d9"><path d="M 0 0 L 879 0 L 879 1175.597656 L 0 1175.597656 Z M 0 0 " clip-rule="nonzero"/></clipPath><clipPath id="73a77a2269"><path d="M 139.554688 194.222656 C 122.875 524.585938 119.210938 557.941406 113.710938 611.277344 C 106.5625 680.648438 92.175781 794.558594 86.21875 850.457031 C 83.011719 880.699219 79.347656 905.441406 79.53125 920.195312 C 79.621094 927.070312 81.453125 930.824219 81.273438 935.316406 C 81.089844 938.890625 80.355469 941.824219 79.347656 944.847656 C 78.339844 947.871094 76.871094 950.894531 75.222656 953.644531 C 73.480469 956.394531 71.375 958.960938 68.992188 961.160156 C 66.699219 963.449219 64.042969 965.464844 61.292969 967.023438 C 58.453125 968.671875 55.429688 969.957031 52.3125 970.871094 C 49.199219 971.789062 45.898438 972.339844 42.691406 972.429688 C 39.484375 972.613281 36.183594 972.339844 32.976562 971.695312 C 29.863281 971.054688 26.652344 969.957031 23.722656 968.582031 C 20.878906 967.207031 18.039062 965.464844 15.566406 963.449219 C 13 961.433594 10.707031 958.960938 8.785156 956.394531 C 6.859375 953.828125 5.117188 950.988281 3.925781 947.960938 C 2.644531 945.03125 1.726562 941.824219 1.179688 938.613281 C 0.628906 935.5 -0.0117188 934.214844 0.71875 928.902344 C 4.570312 903.058594 55.0625 763.675781 77.699219 705.484375 C 92.636719 667.175781 105.007812 641.058594 118.660156 611.734375 C 131.03125 585.066406 141.664062 562.433594 155.867188 536.5 C 171.71875 507.632812 192.707031 474.640625 210.117188 446.691406 C 225.605469 421.855469 240.175781 399.128906 255.019531 376.859375 C 268.859375 355.96875 280.128906 337.730469 296.167969 316.835938 C 315.136719 291.910156 341.53125 262.21875 362.789062 238.394531 C 381.210938 217.867188 396.511719 200.179688 415.757812 182.035156 C 436.195312 162.789062 461.761719 143.269531 482.5625 126.59375 C 500.25 112.386719 514.085938 100.109375 532.324219 87.828125 C 552.394531 74.265625 575.121094 62.535156 598.488281 49.429688 C 624.148438 34.953125 666.300781 11.125 680.140625 4.800781 C 684.722656 2.785156 686.28125 2.234375 689.394531 1.503906 C 692.601562 0.769531 695.992188 0.402344 699.292969 0.402344 C 702.5 0.496094 705.890625 0.953125 709.007812 1.777344 C 712.214844 2.601562 715.328125 3.792969 718.171875 5.351562 C 721.101562 6.910156 723.851562 8.925781 726.234375 11.125 C 728.617188 13.324219 730.816406 15.890625 732.648438 18.546875 C 734.480469 21.296875 736.039062 24.320312 737.140625 27.34375 C 738.238281 30.460938 738.972656 33.761719 739.339844 36.96875 C 739.707031 40.265625 739.613281 43.65625 739.15625 46.863281 C 738.789062 50.074219 737.875 53.371094 736.683594 56.394531 C 735.492188 59.417969 733.839844 62.445312 732.007812 65.101562 C 730.082031 67.757812 727.792969 70.234375 725.316406 72.339844 C 722.84375 74.449219 721.378906 75.914062 717.164062 77.839844 C 706.53125 82.605469 678.671875 85.71875 656.773438 93.234375 C 629.003906 102.671875 594.457031 118.894531 564.765625 132.914062 C 535.898438 146.476562 507.765625 160.957031 480.914062 175.800781 C 455.253906 190.097656 432.160156 202.929688 406.960938 220.066406 C 378.367188 239.585938 343.730469 266.34375 319.167969 287.878906 C 299.558594 305.105469 283.886719 319.585938 269.410156 337.640625 C 255.019531 355.507812 237.703125 374.019531 232.476562 395.648438 C 227.070312 418.375 229.636719 450.816406 239.625 471.433594 C 248.972656 490.585938 267.667969 505.796875 287.554688 516.980469 C 310.464844 529.808594 344.09375 533.382812 372.046875 539.523438 C 399.261719 545.386719 423.546875 550.976562 453.238281 553.359375 C 488.703125 556.292969 534.617188 553.175781 571.089844 552.535156 C 602.796875 551.894531 627.445312 551.710938 659.796875 549.96875 C 698.742188 547.863281 751.800781 537.414062 788.457031 539.980469 C 816.226562 541.8125 846.191406 543.097656 860.945312 555.742188 C 872.765625 566.007812 880.191406 583.691406 878.082031 601.195312 C 874.601562 629.328125 833.179688 673.132812 806.695312 704.015625 C 781.21875 733.707031 755.285156 755.882812 722.84375 783.835938 C 682.339844 818.65625 625.796875 860.8125 580.527344 894.351562 C 540.664062 923.859375 506.757812 949.613281 465.886719 975.179688 C 422.355469 1002.488281 367.921875 1030.164062 326.316406 1052.523438 C 292.960938 1070.394531 263.726562 1085.238281 235.59375 1099.445312 C 211.308594 1111.722656 192.707031 1121.894531 167.320312 1133.074219 C 136.714844 1146.546875 81.636719 1168.171875 63.953125 1173.214844 C 57.996094 1174.953125 55.796875 1175.414062 51.761719 1175.503906 C 47.640625 1175.597656 43.425781 1175.046875 39.484375 1173.855469 C 35.636719 1172.574219 31.695312 1170.648438 28.394531 1168.265625 C 25.097656 1165.882812 22.070312 1162.859375 19.6875 1159.46875 C 17.308594 1156.167969 15.382812 1152.320312 14.28125 1148.378906 C 13.089844 1144.53125 12.449219 1140.222656 12.632812 1136.097656 C 12.726562 1132.066406 13.550781 1127.761719 15.015625 1124.003906 C 16.390625 1120.152344 18.589844 1116.398438 21.15625 1113.191406 C 23.722656 1110.074219 26.929688 1107.140625 30.320312 1104.941406 C 33.800781 1102.835938 37.835938 1101.09375 41.773438 1100.085938 C 45.714844 1099.167969 50.023438 1098.800781 54.054688 1099.167969 C 58.179688 1099.535156 62.394531 1100.542969 66.058594 1102.191406 C 69.816406 1103.84375 73.480469 1106.132812 76.507812 1108.882812 C 79.53125 1111.632812 82.1875 1115.023438 84.203125 1118.597656 C 86.21875 1122.171875 87.6875 1126.203125 88.417969 1130.234375 C 89.246094 1134.175781 89.335938 1138.574219 88.695312 1142.605469 C 88.144531 1146.636719 86.863281 1150.761719 85.027344 1154.425781 C 83.195312 1158.09375 80.722656 1161.574219 77.789062 1164.417969 C 74.949219 1167.347656 71.375 1169.824219 67.707031 1171.65625 C 64.042969 1173.398438 59.917969 1174.679688 55.886719 1175.230469 C 51.855469 1175.78125 47.457031 1175.597656 43.515625 1174.863281 C 39.484375 1174.039062 35.453125 1172.574219 31.878906 1170.554688 C 28.394531 1168.539062 25.003906 1165.789062 22.253906 1162.765625 C 19.597656 1159.652344 17.214844 1155.984375 15.65625 1152.320312 C 14.097656 1148.5625 13 1144.347656 12.726562 1140.222656 C 12.359375 1136.191406 12.726562 1131.882812 13.734375 1127.945312 C 14.742188 1124.003906 16.480469 1119.972656 18.679688 1116.582031 C 20.878906 1113.097656 23.8125 1109.890625 27.019531 1107.417969 C 30.136719 1104.851562 32.242188 1103.84375 37.835938 1101.367188 C 53.960938 1094.128906 106.929688 1079.925781 136.253906 1068.195312 C 161 1058.296875 179.328125 1048.765625 202.96875 1037.035156 C 230.644531 1023.289062 259.328125 1007.894531 291.769531 990.390625 C 331.632812 968.765625 382.769531 942.832031 424.28125 916.53125 C 463.6875 891.511719 496.953125 865.761719 535.441406 836.710938 C 578.785156 804.179688 633.035156 763.308594 670.882812 729.949219 C 700.574219 703.832031 724.128906 676.523438 746.488281 655.8125 C 763.441406 640.050781 794.875 621.449219 792.582031 615.398438 C 790.472656 610.175781 763.625 615.765625 745.847656 616.683594 C 722.019531 617.875 690.769531 621.171875 662.363281 622.824219 C 632.855469 624.5625 604.8125 625.664062 571.914062 626.582031 C 532.324219 627.773438 480.546875 631.34375 441.140625 628.597656 C 408.335938 626.304688 382.675781 621.355469 351.519531 614.574219 C 316.421875 606.878906 269.683594 598.261719 241.367188 583.507812 C 220.199219 572.511719 204.800781 558.492188 191.972656 543.097656 C 180.058594 528.800781 172.546875 513.769531 165.488281 495.078125 C 156.78125 472.074219 145.511719 438.351562 147.34375 413.699219 C 148.992188 392.257812 159.714844 374.84375 170.070312 355.050781 C 182.074219 332.050781 199.671875 306.113281 217.355469 285.039062 C 234.492188 264.695312 252.363281 249.390625 274.175781 230.421875 C 301.023438 206.960938 337.679688 177.636719 368.011719 156.375 C 394.496094 137.773438 418.507812 124.027344 445.175781 108.445312 C 473.125 92.136719 498.417969 76.28125 532.414062 60.703125 C 576.496094 40.359375 668.410156 6.453125 689.394531 1.503906 C 694.527344 0.21875 695.992188 0.402344 699.199219 0.402344 C 702.5 0.496094 705.890625 0.953125 709.007812 1.777344 C 712.214844 2.601562 715.328125 3.792969 718.171875 5.351562 C 721.101562 6.910156 723.851562 8.925781 726.234375 11.125 C 728.617188 13.324219 730.816406 15.890625 732.648438 18.546875 C 734.480469 21.296875 736.039062 24.320312 737.140625 27.34375 C 738.238281 30.460938 738.972656 33.761719 739.339844 36.96875 C 739.707031 40.265625 739.613281 43.65625 739.15625 46.863281 C 738.789062 50.074219 737.875 53.371094 736.683594 56.394531 C 735.492188 59.417969 733.839844 62.445312 732.007812 65.101562 C 730.082031 67.757812 727.792969 70.234375 725.316406 72.339844 C 722.84375 74.449219 721.46875 75.457031 717.164062 77.839844 C 704.242188 85.171875 660.894531 103.222656 636.335938 115.777344 C 615.074219 126.773438 596.105469 136.765625 577.960938 148.402344 C 560.734375 159.492188 546.527344 170.671875 529.757812 183.683594 C 510.605469 198.53125 488.246094 215.941406 469.550781 233.261719 C 451.496094 249.941406 436.378906 266.25 419.058594 285.679688 C 399.261719 307.855469 375.804688 336.355469 357.933594 359.816406 C 342.628906 379.792969 330.992188 396.929688 317.519531 416.90625 C 303.132812 438.441406 288.929688 460.621094 274.265625 484.722656 C 258.046875 511.390625 239.257812 542.730469 224.78125 570.222656 C 211.675781 594.871094 201.503906 616.226562 190.324219 641.609375 C 177.859375 669.835938 166.40625 699.527344 154.21875 732.242188 C 139.921875 770.457031 123.976562 820.675781 110.6875 857.421875 C 100.058594 886.472656 85.121094 921.753906 81.273438 935.316406 C 79.898438 939.898438 80.355469 941.730469 79.347656 944.847656 C 78.339844 947.871094 76.871094 950.894531 75.222656 953.644531 C 73.480469 956.394531 71.375 958.960938 68.992188 961.160156 C 66.699219 963.449219 64.042969 965.464844 61.292969 967.023438 C 58.453125 968.671875 55.429688 969.957031 52.3125 970.871094 C 49.199219 971.789062 45.898438 972.339844 42.691406 972.429688 C 39.484375 972.613281 36.183594 972.339844 32.976562 971.695312 C 29.863281 971.054688 26.652344 969.957031 23.8125 968.582031 C 20.878906 967.207031 18.039062 965.464844 15.566406 963.449219 C 13 961.433594 10.707031 958.960938 8.785156 956.394531 C 6.859375 953.828125 5.117188 950.988281 3.925781 947.960938 C 2.644531 945.03125 1.820312 942.648438 1.179688 938.707031 C 0.171875 932.199219 -0.105469 923.402344 0.628906 912.679688 C 1.820312 894.71875 7.683594 869.152344 11.714844 841.386719 C 17.488281 802.4375 26.011719 743.148438 30.871094 700.71875 C 34.902344 665.800781 36.824219 639.867188 39.851562 605.046875 C 43.425781 563.164062 47.824219 520.644531 50.480469 466.667969 C 54.238281 390.605469 54.054688 220.796875 56.621094 191.566406 C 57.078125 185.976562 57.261719 184.875 58.085938 181.667969 C 59.003906 178.460938 60.378906 175.34375 61.933594 172.410156 C 63.585938 169.570312 65.601562 166.820312 67.890625 164.347656 C 70.183594 161.964844 72.839844 159.765625 75.589844 158.023438 C 78.429688 156.191406 81.453125 154.726562 84.664062 153.625 C 87.777344 152.527344 91.078125 151.882812 94.375 151.519531 C 97.675781 151.242188 101.15625 151.335938 104.363281 151.882812 C 107.664062 152.433594 110.964844 153.351562 114.078125 154.632812 C 117.101562 155.824219 120.035156 157.566406 122.785156 159.492188 C 125.441406 161.507812 127.917969 163.890625 130.023438 166.363281 C 132.132812 168.929688 133.964844 171.863281 135.429688 174.792969 C 136.898438 177.820312 137.996094 181.027344 138.636719 184.324219 C 139.371094 187.53125 139.554688 194.222656 139.554688 194.222656 " clip-rule="nonzero"/></clipPath><clipPath id="045269ee70"><rect x="0" width="879" y="0" height="1176"/></clipPath></defs><rect x="-144" width="1728" fill="#ffffff" y="-143.999994" height="1727.999922" fill-opacity="1"/><rect x="-144" width="1728" fill="#ffffff" y="-143.999994" height="1727.999922" fill-opacity="1"/><g transform="matrix(1, 0, 0, 1, 0, -0.000000000000101068)"><g clip-path="url(#5c6df637a0)"><g clip-path="url(#7ec43b5956)"><rect x="-316.8" width="2073.6" fill="#48aa76" height="2073.599906" y="-316.799986" fill-opacity="1"/></g></g></g><g clip-path="url(#df69aef6b3)"><g clip-path="url(#c048d76ca1)"><g transform="matrix(1, 0, 0, 1, 322, 132)"><g clip-path="url(#045269ee70)"><g clip-path="url(#fb59dee8d9)"><g clip-path="url(#73a77a2269)"><rect x="-638.8" width="2073.6" fill="#ffffff" height="2073.599906" y="-448.799986" fill-opacity="1"/></g></g></g></g></g></g></svg>